<svg width="33" height="24" viewBox="0 0 33 24" fill="none" xmlns="http://www.w3.org/2000/svg">
<path fill-rule="evenodd" clip-rule="evenodd" d="M0.222656 0V24H32.2227V0H0.222656Z" fill="#C51918"/>
<mask id="mask0_1117_1364" style="mask-type:luminance" maskUnits="userSpaceOnUse" x="0" y="0" width="33" height="24">
<path fill-rule="evenodd" clip-rule="evenodd" d="M0.222656 0V24H32.2227V0H0.222656Z" fill="white"/>
</mask>
<g mask="url(#mask0_1117_1364)">
<path fill-rule="evenodd" clip-rule="evenodd" d="M16.205 17.8668C16.3121 17.8668 16.4187 17.864 16.5244 17.8585L17.1415 19.8262L17.2844 17.7705C17.4909 17.7331 17.6936 17.6853 17.8921 17.6275L18.9501 19.4011L18.611 17.3673C18.8022 17.2839 18.9881 17.1909 19.1682 17.0889L20.611 18.5737L19.8075 16.6706C19.9734 16.5463 20.1326 16.4136 20.2844 16.2731L22.0348 17.3887L20.8103 15.7204C20.9428 15.562 21.0672 15.3967 21.1828 15.2251L23.1447 15.9099L21.5665 14.5677C21.6587 14.3836 21.7415 14.1941 21.8143 13.9997L23.8809 14.2172L22.034 13.2726C22.0804 13.073 22.1167 12.8695 22.1422 12.6628L24.2037 12.4016L22.1869 11.9049C22.1859 11.696 22.1741 11.4896 22.1518 11.2863L24.0956 10.5612L22.0209 10.5393C21.9717 10.3364 21.9119 10.1377 21.8423 9.94358L23.5625 8.79511L21.5406 9.24787C21.4455 9.06229 21.3408 8.88234 21.2272 8.70865L22.6332 7.19855L20.772 8.10113C20.6366 7.94245 20.4928 7.79093 20.3415 7.64722L21.3577 5.8576L19.7586 7.15993C19.59 7.03623 19.4146 6.92111 19.233 6.81522L19.8048 4.84455L18.5537 6.47483C18.3609 6.39309 18.1628 6.32111 17.9602 6.25952L18.0583 4.21402L17.2205 6.08516C17.0145 6.05021 16.8049 6.02571 16.5923 6.01224L16.2122 4L15.8323 6.01133C15.6192 6.02432 15.4092 6.04836 15.2028 6.0829L14.3661 4.21402L14.4639 6.25522C14.2602 6.3166 14.061 6.38848 13.8671 6.47022L12.6195 4.84455L13.1892 6.80805C13.006 6.91432 12.8291 7.02999 12.6589 7.15437L11.0667 5.8576L12.0778 7.63834C11.9246 7.7832 11.7792 7.93604 11.6421 8.09619L9.79117 7.19855L11.1887 8.69956C11.0734 8.87516 10.9672 9.05718 10.8708 9.24498L8.86184 8.79511L10.5704 9.93582C10.4996 10.1324 10.4389 10.3338 10.389 10.5394L8.32877 10.5612L10.2587 11.2811C10.236 11.4873 10.2239 11.6966 10.223 11.9085L8.2207 12.4016L10.2675 12.6609C10.2933 12.8706 10.3302 13.0768 10.3775 13.2791L8.54345 14.2172L10.5962 14.0012C10.67 14.198 10.7541 14.39 10.8477 14.5763L9.27963 15.9099L11.2299 15.2292C11.347 15.4026 11.473 15.5697 11.6073 15.7296L10.3895 17.3887L12.1314 16.2786C12.2848 16.4201 12.4457 16.5537 12.6134 16.6788L11.8134 18.5737L13.2511 17.0941C13.4325 17.1965 13.6198 17.2897 13.8124 17.3732L13.4743 19.4011L14.5301 17.6311C14.7294 17.6886 14.9329 17.7361 15.1401 17.7731L15.2829 19.8262L15.8997 17.8592C16.0008 17.8643 16.1026 17.8668 16.205 17.8668ZM20.705 11.9157C20.705 14.4005 18.6741 16.4148 16.169 16.4148C13.6638 16.4148 11.633 14.4005 11.633 11.9157C11.633 9.43088 13.6638 7.41654 16.169 7.41654C18.6741 7.41654 20.705 9.43088 20.705 11.9157ZM19.3331 13.3813C19.5224 12.9558 19.6276 12.4846 19.6276 11.9888C19.6276 11.5045 19.5272 11.0437 19.3461 10.6259C18.5634 10.6816 17.8998 10.8876 17.3615 11.1513C18.5562 11.6739 19.0967 12.5342 19.3331 13.3813ZM18.9476 14.0389C18.8498 14.1698 18.7429 14.2935 18.6278 14.409C18.5639 13.2285 18.0589 12.3283 17.1533 11.3571C18.2746 11.8943 18.9071 13.1784 18.9476 14.0389ZM18.0893 14.85C18.0259 14.892 17.9611 14.932 17.8948 14.9697C17.6257 13.6432 17.1159 12.5965 16.4064 11.76L16.5784 11.6304C16.6012 11.6131 16.6245 11.5959 16.6483 11.5787C17.5562 12.6228 18.1289 13.5186 18.0893 14.85ZM16.1984 15.4181C16.6008 15.4181 16.987 15.3488 17.3458 15.2214C17.0851 13.9592 16.631 12.7836 15.9738 11.9353C15.1885 12.8702 14.7889 13.9267 14.7742 15.1093C15.2079 15.3076 15.6902 15.4181 16.1984 15.4181ZM15.5383 11.529C15.5656 11.5504 15.5917 11.5717 15.6166 11.5929C14.7801 12.5443 14.3225 13.6172 14.2445 14.8074C14.1418 14.736 14.0431 14.6592 13.9489 14.5773C14.2641 13.3189 14.7867 12.2807 15.5383 11.529ZM13.0407 10.6491C13.8267 10.7376 14.4472 10.9287 14.9122 11.15C13.7271 11.6536 13.2603 12.4649 13.0256 13.2925C12.8603 12.8906 12.7691 12.4504 12.7691 11.9888C12.7691 11.5135 12.8659 11.0607 13.0407 10.6491ZM13.4711 14.068C13.4447 14.0334 13.4189 13.9983 13.3938 13.9628C13.4531 13.0938 14.0065 11.8607 15.1244 11.3523C14.3745 12.0801 13.8135 12.9085 13.4711 14.068ZM13.7248 9.61372C14.3488 8.96401 15.2264 8.55962 16.1984 8.55962C17.1552 8.55962 18.0205 8.95149 18.6425 9.58351C17.6637 9.69703 16.8336 9.94244 16.1597 10.3242C15.5588 9.97946 14.7465 9.74642 13.7248 9.61372Z" fill="#FFDC17"/>
</g>
</svg>
