<svg width="44" height="40" viewBox="0 0 44 40" fill="none" xmlns="http://www.w3.org/2000/svg">
<g clip-path="url(#clip0_764_2256)">
<path d="M18.1768 40.0286C17.9483 40.0286 17.7198 40.0286 17.4714 40.0192C16.9909 39.9537 16.545 39.8373 16.1407 39.6089C15.6082 39.3081 15.0432 39.2222 14.4407 39.2515C13.968 39.2744 13.4902 39.2817 13.0198 39.2389C12.2481 39.1688 11.5223 38.9091 10.8192 38.5922C9.34365 37.9269 8.03453 37.0095 6.83531 35.9307C6.01388 35.1917 5.26559 34.3873 4.66074 33.4563C4.31429 32.9231 4.10743 32.3439 4.08011 31.7093C4.04997 31.0089 3.79992 30.4054 3.36217 29.8618C2.69425 29.0322 2.09808 28.1542 1.64238 27.1866C1.13639 26.1122 0.773704 24.9836 0.380494 23.8665C0.365132 23.8228 0.363649 23.7732 0.361511 23.7262C0.327059 22.9675 0.292687 22.2087 0.26001 21.45C0.194453 19.9276 0.130819 18.4052 0.064062 16.8829C0.0538294 16.6496 0.0510814 16.4208 0.140741 16.1975C0.184464 16.0886 0.206154 15.9697 0.22863 15.8536C0.34931 15.23 0.453072 14.6028 0.58882 13.9826C0.867336 12.7101 1.43655 11.5629 2.14717 10.4814C3.10277 9.02701 4.24526 7.72637 5.46068 6.48792C6.04582 5.89168 6.66957 5.33221 7.23686 4.71997C7.60151 4.32641 7.97069 3.95876 8.40765 3.63801C9.66208 2.71722 10.8881 1.75752 12.1188 0.804773C12.5126 0.499936 12.9476 0.332985 13.4421 0.315418C14.6421 0.272797 15.8422 0.234136 17.035 0.0819474C17.1782 0.0636872 17.3214 0.0463366 17.4646 0.0285645C17.6646 0.0285645 17.8646 0.0285645 18.0849 0.0383571C18.4596 0.108428 18.8215 0.141197 19.1672 0.234317C20.081 0.480502 20.8122 0.978935 21.2475 1.8489C21.5218 2.39715 21.6312 2.9863 21.6786 3.59144C21.6858 3.68346 21.6326 3.70275 21.5697 3.72813C20.9807 3.96558 20.3919 4.20358 19.8032 4.44177C19.7624 4.45829 19.7227 4.47767 19.6733 4.49989C19.696 4.51549 19.7025 4.52364 19.7097 4.52437C20.5737 4.61097 21.4373 4.70075 22.3018 4.78219C23.4451 4.8899 24.5891 4.98931 25.7325 5.09547C27.323 5.24315 28.8359 5.67232 30.2542 6.40429C31.3366 6.96294 32.3983 7.56167 33.4694 8.14217C33.5145 8.16662 33.5619 8.18696 33.6254 8.21751C33.5259 8.00248 33.4318 7.81629 33.3527 7.62393C33.2531 7.38161 33.2731 7.34562 33.5316 7.24113C34.4523 8.37937 35.3765 9.52202 36.3008 10.6647C36.3123 10.6577 36.3237 10.6507 36.3352 10.6437C36.2372 10.1093 36.1392 9.57484 36.0372 9.01836C36.1536 9.08038 36.254 9.12411 36.3441 9.18361C36.6333 9.3748 36.9347 9.36089 37.2421 9.24456C37.2764 9.23159 37.3185 9.18647 37.322 9.15271C37.4098 8.28297 37.3695 7.44355 36.864 6.67448C36.5024 6.12431 36.1818 5.5463 35.8606 4.97081C35.6794 4.64612 35.5341 4.3014 35.3685 3.957C35.9051 3.77383 36.4097 3.76961 36.9103 3.97453C37.4353 4.18942 37.8351 4.56292 38.1854 4.99577C38.7332 5.67262 39.1327 6.438 39.4831 7.22825C39.973 8.33276 40.4447 9.44531 40.9236 10.5547C41.0129 10.7614 41.0105 10.9738 40.9631 11.1991C40.6585 10.7541 40.5307 10.2104 40.0901 9.82662C40.0955 9.90188 40.0958 9.93971 40.1013 9.97678C40.192 10.591 40.2691 11.2077 40.3791 11.8185C40.4688 12.3168 40.5818 12.8125 40.7143 13.3013C40.8588 13.8342 41.288 14.0697 41.7898 14.2432C41.6659 13.7218 41.5464 13.2191 41.4269 12.7164C41.4397 12.7072 41.4525 12.698 41.4653 12.6888C41.5884 12.8036 41.7416 12.8995 41.8283 13.0373C41.9989 13.308 42.1582 13.5917 42.2764 13.8883C42.5841 14.6604 42.7202 15.4964 43.1672 16.2447C42.4169 16.2447 41.6895 16.2447 40.9407 16.2447C41.7996 19.1614 42.6517 22.0549 43.5067 24.9584C43.003 25.2345 42.7321 25.7018 42.4686 26.1781C42.136 26.7795 41.7931 27.3754 41.4599 27.9766C41.3451 28.1836 41.2458 28.3992 41.1399 28.6111C40.9706 28.95 40.8239 29.3025 40.6286 29.6256C40.0766 30.5388 39.497 31.4352 38.9428 32.3471C38.3282 33.3582 37.6145 34.2829 36.6465 34.9796C35.9498 35.481 35.2382 35.9626 34.5201 36.433C33.2478 37.2663 31.9014 37.9558 30.4194 38.3266C29.335 38.5979 28.2344 38.8046 27.1402 39.036C25.9649 39.2846 24.7757 39.3819 23.5751 39.3546C23.2239 39.3466 22.8723 39.348 22.5211 39.3539C21.8801 39.3646 21.2388 39.3846 20.6093 39.5196C20.1043 39.628 19.6043 39.7597 19.0994 39.8686C18.7945 39.9343 18.4845 39.976 18.1768 40.0286ZM22.1421 33.2274C22.3792 33.2336 22.6163 33.2413 22.8534 33.2446C22.8931 33.2451 22.9331 33.2267 22.982 33.2067C22.982 33.2067 22.9893 33.1952 23.0158 33.1941C23.2041 33.1748 23.392 33.1477 23.5808 33.1378C24.0874 33.1111 24.5947 33.0964 25.1012 33.0677C25.4246 33.0493 25.7214 32.9667 25.9908 32.7589C26.8544 32.0926 27.7317 31.4439 28.602 30.7861C28.6607 30.7417 28.7066 30.6798 28.7562 30.624C28.8588 30.5086 28.9521 30.3838 29.0627 30.2769C29.8856 29.4816 30.7019 28.6791 31.4061 27.7743C31.7145 27.3779 31.9821 26.9498 32.2917 26.533C32.4097 26.533 32.5277 26.533 32.6726 26.533C32.5989 26.3902 32.5439 26.2836 32.4951 26.1569C32.6612 25.7363 32.8423 25.3209 32.9878 24.8933C33.0769 24.6313 33.1113 24.3507 33.1775 24.0994C33.1799 24.8396 33.186 25.5799 33.1816 26.3201C33.1807 26.4601 33.2243 26.492 33.3583 26.4915C34.7013 26.4867 36.0444 26.4887 37.3874 26.4883C37.4383 26.4883 37.4891 26.4838 37.5326 26.4817C37.5437 26.4601 37.5516 26.4519 37.5518 26.4435C37.5598 25.9834 37.5693 25.5233 37.57 25.0631C37.57 25.0341 37.5016 24.9818 37.4629 24.9798C37.2878 24.9707 37.1119 24.9756 36.9364 24.9756C36.4049 24.9755 35.8733 24.9735 35.3418 24.9773C35.2403 24.978 35.1872 24.9524 35.2012 24.8422C35.2054 24.8095 35.2059 24.7752 35.201 24.7427C35.1813 24.611 35.2393 24.5748 35.367 24.5728C35.9458 24.5639 36.5245 24.5454 37.1032 24.5299C37.1529 24.5286 37.2026 24.5239 37.2468 24.5211C37.2468 24.0479 37.2438 23.5928 37.2489 23.1378C37.2502 23.0255 37.2129 22.9931 37.102 22.9936C36.5468 22.9961 35.9915 22.9923 35.4363 22.9877C35.1834 22.9856 35.209 23.028 35.1993 22.7505C35.1948 22.6209 35.2333 22.5808 35.3663 22.5833C35.9736 22.5949 36.5811 22.593 37.1884 22.6029C37.3045 22.6048 37.345 22.5734 37.3457 22.4537C37.3483 22.0314 37.3616 21.6092 37.3699 21.187C37.3707 21.146 37.3646 21.105 37.3609 21.0525C35.9874 21.0525 34.626 21.0525 33.2684 21.0277C33.2607 20.7872 33.2549 20.5467 33.2443 20.3064C33.2409 20.2285 33.2252 20.1511 33.2266 20.0593C33.6179 19.7694 33.8788 19.3868 34.0159 18.9226C34.1941 18.3189 34.2054 17.7068 34.0758 17.0927C33.9144 16.3283 33.471 15.7891 32.7607 15.4669C32.3326 15.2727 31.879 15.1794 31.4127 15.105C31.3886 15.0706 31.3665 15.0346 31.3401 15.0021C31.0727 14.6724 30.9187 14.3018 30.9034 13.872C30.8977 13.7126 30.8644 13.5511 30.8218 13.3965C30.6982 12.9484 30.4226 12.584 30.1293 12.2391C29.167 11.1072 28.0192 10.2133 26.6548 9.61427C26.1112 9.37558 25.5421 9.22586 24.9378 9.25499C24.7056 9.26618 24.4708 9.28022 24.2406 9.25747C24.053 9.23893 23.8566 9.19611 23.6887 9.11394C23.2608 8.90463 22.8219 8.75184 22.3422 8.80668C21.9868 8.84731 21.6363 8.93074 21.2831 8.992C20.8746 9.06285 20.4677 9.1625 20.056 9.19108C19.5409 9.22685 19.0216 9.20173 18.5041 9.20568C18.3524 9.20683 18.1988 9.20415 18.0495 9.22616C17.5073 9.30609 16.9644 9.3841 16.4259 9.48506C15.9027 9.58314 15.3837 9.70419 14.8646 9.82315C14.349 9.94133 13.8619 10.1406 13.3891 10.3744C12.6646 10.7325 11.9993 11.1868 11.3326 11.64C10.641 12.1102 10.0804 12.6972 9.65314 13.4166C9.35949 13.911 9.04965 14.3959 8.74956 14.8865C8.63196 15.0788 8.52121 15.2752 8.38819 15.4634C8.31249 15.4241 8.23855 15.3808 8.16081 15.3461C7.67067 15.1271 7.14787 15.0516 6.62018 15.0497C5.99928 15.0474 5.37815 15.0854 4.75728 15.1101C4.57995 15.1171 4.40319 15.1386 4.24496 15.1519C4.24496 17.01 4.24496 18.8436 4.24496 20.6908C5.38359 20.6977 6.49682 20.8575 7.60914 20.6805C7.86558 21.5557 8.12202 22.431 8.38582 23.3314C7.92216 23.3314 7.48876 23.3314 7.07225 23.3314C7.19952 23.6986 7.31927 24.0554 7.44719 24.4092C7.53235 24.6447 7.61975 24.8803 7.72415 25.1077C7.79132 25.2539 7.88982 25.3865 8.08349 25.474C8.01115 25.1553 7.94637 24.87 7.87524 24.5566C8.19195 24.6612 8.4433 24.8043 8.51461 25.1061C8.64742 25.6682 8.75025 26.2374 8.86059 26.8046C8.88579 26.9342 8.89075 27.0676 8.90503 27.1993C8.63388 27.0004 8.56406 26.6817 8.36147 26.4045C8.35706 26.4871 8.34188 26.5362 8.35449 26.5766C8.40601 26.7417 8.45701 26.9081 8.52445 27.0671C8.8051 27.7288 9.08191 28.3924 9.37906 29.0466C9.61925 29.5755 9.90501 30.0805 10.3368 30.4833C10.7443 30.8635 11.2091 31.0237 11.7722 30.8355C11.7578 30.7927 11.751 30.7555 11.7338 30.724C11.4721 30.2436 11.2295 29.7511 10.9406 29.2875C10.6377 28.8014 10.515 28.2913 10.5927 27.7292C10.5988 27.6851 10.6232 27.6226 10.6569 27.6067C10.8023 27.5383 10.9535 27.5142 11.1058 27.5981C11.1859 27.6422 11.2704 27.6782 11.378 27.73C11.3171 27.3927 11.2607 27.0798 11.2042 26.767C11.2685 26.7989 11.3088 26.8417 11.3457 26.8872C11.8462 27.5044 12.345 28.1229 12.8491 28.7372C12.8788 28.7733 12.9499 28.7753 13.0018 28.7931C13.0134 28.7424 13.0463 28.6847 13.0326 28.6421C12.9909 28.5121 12.9312 28.388 12.8771 28.2628C12.8771 28.2628 12.8756 28.264 12.8963 28.2573C12.9266 28.2699 12.958 28.2802 12.9869 28.2955C13.7105 28.6801 14.4275 29.078 15.159 29.4471C16.0596 29.9015 17.032 30.0941 18.0306 30.1732C18.3043 30.1949 18.5781 30.2173 18.8516 30.242C19.4269 30.2941 20.0021 30.3471 20.5771 30.4016C20.8249 30.4251 21.0723 30.4535 21.3461 30.4825C21.2984 30.52 21.2737 30.5495 21.2422 30.5624C21.0037 30.6606 20.762 30.7512 20.5248 30.8523C20.0742 31.0443 20.1287 30.8972 20.197 31.389C20.3574 32.5433 21.128 33.0653 22.12 33.2039C22.12 33.2039 22.1279 33.212 22.1421 33.2274ZM36.3418 10.6953L36.3379 10.6919C36.3379 10.6919 36.3375 10.6976 36.3418 10.6953Z" fill="#52658D"/>
<path d="M33.215 20.0735C33.2252 20.1511 33.2409 20.2285 33.2443 20.3064C33.2549 20.5467 33.2608 20.7872 33.2548 21.0409C33.2223 21.0982 33.1874 21.142 33.1871 21.1861C33.1834 21.7651 33.1857 22.3441 33.1842 22.9231C33.1833 23.2837 33.1784 23.6443 33.1745 24.006C33.1737 24.0071 33.1781 24.0042 33.1762 24.0164C33.1729 24.0452 33.1717 24.0618 33.1704 24.0783C33.1114 24.3506 33.0769 24.6313 32.9878 24.8933C32.8423 25.3208 32.6612 25.7363 32.4866 26.1607C32.4227 26.0765 32.3652 25.9897 32.3123 25.9001C31.9464 25.2794 31.5834 24.6571 31.215 24.0379C31.1242 23.8853 31.1149 23.7362 31.187 23.5779C31.2596 23.4184 31.3237 23.2544 31.406 23.1001C31.7228 22.5065 32.0468 21.9167 32.3645 21.3236C32.4171 21.2255 32.4519 21.1179 32.497 21.0097C32.4634 21.003 32.4499 20.998 32.4364 20.998C31.7005 20.9974 30.9646 20.9959 30.2288 21.001C30.1913 21.0012 30.1359 21.0514 30.1199 21.0909C30.047 21.2705 29.9899 21.4565 29.9185 21.6368C29.76 22.0373 29.5835 22.4313 29.4417 22.8374C29.3928 22.9773 29.3202 23.0576 29.1904 23.1324C29.1877 23.0701 29.1839 23.0242 29.1838 22.9783C29.1826 22.4038 29.1823 21.8293 29.1801 21.2549C29.1799 21.199 29.1679 21.1431 29.1542 21.0794C29.1244 21.0661 29.1018 21.0557 29.0792 21.0557C28.5119 21.0547 27.9446 21.0542 27.3773 21.0561C27.3427 21.0562 27.3081 21.0765 27.2664 21.0967C27.2545 21.143 27.2454 21.1799 27.2455 21.2167C27.2486 22.9153 27.2524 24.6139 27.2569 26.3125C27.257 26.3546 27.2651 26.3968 27.2784 26.446C27.3103 26.4576 27.3334 26.4661 27.3564 26.4661C27.9251 26.467 28.4938 26.4674 29.0625 26.4658C29.0982 26.4657 29.1338 26.4484 29.1744 26.4265C29.1793 25.7518 29.1793 25.0896 29.1793 24.422C29.2406 24.422 29.2822 24.422 29.3087 24.422C29.3361 24.5013 29.3547 24.578 29.3879 24.6478C29.6724 25.2458 29.9615 25.8417 30.2438 26.4408C30.2859 26.5302 30.3325 26.5641 30.4344 26.5619C31.0456 26.5488 31.657 26.5438 32.2683 26.5361C31.9821 26.9498 31.7145 27.3779 31.4061 27.7742C30.7019 28.679 29.8856 29.4816 29.0627 30.2769C28.9521 30.3838 28.8588 30.5086 28.7562 30.624C28.7066 30.6798 28.6607 30.7417 28.602 30.7861C27.7317 31.4438 26.8544 32.0925 25.9908 32.7589C25.7214 32.9667 25.4247 33.0493 25.1012 33.0676C24.5947 33.0963 24.0875 33.111 23.5808 33.1377C23.392 33.1477 23.2041 33.1748 22.9898 33.1926C22.6806 33.1922 22.3975 33.1932 22.1144 33.1942C21.128 33.0652 20.3574 32.5433 20.1971 31.389C20.1287 30.8972 20.0742 31.0443 20.5248 30.8523C20.7621 30.7512 21.0037 30.6605 21.2422 30.5624C21.2737 30.5494 21.2984 30.5199 21.3461 30.4824C21.0723 30.4535 20.8249 30.4251 20.5771 30.4016C20.0021 30.347 19.4269 30.2941 18.8516 30.242C18.5781 30.2172 18.3044 30.1948 18.0306 30.1732C17.032 30.0941 16.0596 29.9015 15.159 29.447C14.4275 29.0779 13.7105 28.6801 12.9869 28.2955C12.9581 28.2802 12.9266 28.2699 12.8876 28.2567C12.8757 28.2568 12.8725 28.2574 12.8693 28.2581C12.8723 28.2593 12.8754 28.2604 12.8785 28.2616C12.9312 28.388 12.9909 28.5121 13.0326 28.642C13.0463 28.6847 13.0134 28.7423 13.0018 28.7931C12.95 28.7752 12.8788 28.7732 12.8491 28.7371C12.345 28.1229 11.8462 27.5044 11.3457 26.8872C11.3088 26.8416 11.2686 26.7988 11.2042 26.767C11.2607 27.0798 11.3171 27.3926 11.378 27.73C11.2704 27.6782 11.1859 27.6421 11.1058 27.598C10.9535 27.5141 10.8023 27.5383 10.6569 27.6066C10.6232 27.6225 10.5988 27.685 10.5927 27.7292C10.515 28.2913 10.6377 28.8014 10.9406 29.2875C11.2295 29.7511 11.4721 30.2436 11.7338 30.724C11.751 30.7555 11.7578 30.7927 11.7722 30.8355C11.2091 31.0236 10.7443 30.8634 10.3369 30.4833C9.90502 30.0805 9.61926 29.5755 9.37908 29.0466C9.08192 28.3923 8.80511 27.7287 8.52447 27.067C8.45703 26.908 8.40602 26.7417 8.3545 26.5765C8.3419 26.5361 8.35708 26.487 8.36148 26.4044C8.56407 26.6817 8.6339 27.0004 8.90504 27.1993C8.89076 27.0676 8.8858 26.9341 8.8606 26.8046C8.75027 26.2374 8.64743 25.6682 8.51462 25.1061C8.44331 24.8043 8.19196 24.6612 7.87525 24.5566C7.94639 24.8699 8.01116 25.1553 8.08351 25.474C7.88983 25.3865 7.79133 25.2539 7.72416 25.1076C7.61976 24.8803 7.53236 24.6447 7.44721 24.4092C7.31928 24.0553 7.19953 23.6985 7.07227 23.3314C7.48877 23.3314 7.92217 23.3314 8.38583 23.3314C8.12203 22.431 7.86559 21.5557 7.6194 20.6665C7.9167 20.559 8.21234 20.4854 8.48859 20.3667C8.83148 20.2194 9.10898 19.9819 9.25436 19.6237C9.44318 19.1584 9.28282 18.5869 8.82734 18.2113C8.61014 18.0322 8.34866 17.9068 8.10094 17.7532C8.2162 17.6876 8.35251 17.6055 8.49283 17.5309C8.89994 17.3146 9.10326 16.9196 9.04875 16.4606C8.99685 16.0236 8.76175 15.709 8.40735 15.4698C8.52122 15.2752 8.63197 15.0788 8.74957 14.8865C9.04966 14.3958 9.3595 13.911 9.65315 13.4166C10.0804 12.6972 10.641 12.1101 11.3326 11.64C11.9993 11.1868 12.6646 10.7325 13.3891 10.3744C13.8619 10.1406 14.349 9.9413 14.8646 9.82312C15.3837 9.70416 15.9027 9.58311 16.4259 9.48503C16.9644 9.38407 17.5073 9.30606 18.0495 9.22613C18.1988 9.20412 18.3524 9.2068 18.5041 9.20565C19.0216 9.20169 19.5409 9.22682 20.0561 9.19105C20.4677 9.16247 20.8746 9.06282 21.2831 8.99197C21.6363 8.93071 21.9868 8.84728 22.3422 8.80665C22.8219 8.75181 23.2608 8.9046 23.6887 9.11391C23.8566 9.19608 24.053 9.23889 24.2406 9.25744C24.4708 9.28019 24.7056 9.26615 24.9378 9.25496C25.5421 9.22583 26.1112 9.37555 26.6549 9.61424C28.0192 10.2133 29.167 11.1071 30.1293 12.239C30.4226 12.584 30.6982 12.9483 30.8218 13.3965C30.8644 13.551 30.8977 13.7125 30.9034 13.872C30.9188 14.3018 31.0727 14.6724 31.3402 15.0021C31.3665 15.0346 31.3887 15.0706 31.4029 15.1137C30.485 15.0236 29.5781 15.0662 28.6657 15.1224C28.6533 15.2464 28.6356 15.3496 28.6338 15.4532C28.6143 16.606 28.5864 17.7588 28.5844 18.9117C28.5835 19.4564 28.6352 20.0012 28.6593 20.5462C28.664 20.6537 28.706 20.6923 28.8147 20.6927C29.6018 20.6955 30.3901 20.7332 31.1755 20.7006C31.9008 20.6705 32.602 20.4992 33.215 20.0735ZM23.9925 20.6583C24 19.9036 24.0074 19.1489 24.0152 18.3641C24.363 18.7447 24.563 19.1684 24.759 19.5958C24.8733 19.845 24.9916 20.094 25.1313 20.3293C25.2807 20.5809 25.5173 20.6917 25.8146 20.6846C26.3698 20.6714 26.9251 20.6675 27.4803 20.6599C27.5312 20.6592 27.5821 20.6598 27.6354 20.6598C27.6354 18.81 27.6354 16.9768 27.6354 15.1336C26.9485 15.1336 26.2727 15.1336 25.5821 15.1336C25.5821 15.8863 25.5821 16.6325 25.5821 17.3993C25.3753 17.2606 25.2544 17.0801 25.1586 16.8856C24.9997 16.5627 24.8638 16.2282 24.6987 15.9086C24.5952 15.7084 24.4677 15.5177 24.3296 15.3393C24.2081 15.1823 24.0305 15.1195 23.8265 15.1211C23.238 15.1257 22.6494 15.1227 22.0609 15.123C22.0241 15.123 21.9874 15.1265 21.9424 15.1287C21.9402 15.1778 21.9368 15.2192 21.9368 15.2607C21.9365 17.0263 21.9365 18.7919 21.9369 20.5575C21.9369 20.5999 21.9427 20.6422 21.9627 20.6986C21.9811 20.7025 21.9994 20.7098 22.0177 20.7098C22.6378 20.7105 23.2579 20.711 23.8779 20.7095C23.9136 20.7094 23.9492 20.6929 23.9925 20.6583ZM12.7236 20.9941C12.6161 20.9941 12.5087 20.9941 12.4016 20.9941C12.4016 22.858 12.4016 24.7021 12.4016 26.5502C13.0861 26.5502 13.7624 26.5502 14.4664 26.5502C14.4664 25.6001 14.4664 24.6574 14.4664 23.7147C14.4785 23.7138 14.4907 23.713 14.5028 23.7121C14.6729 24.2285 14.8416 24.7455 15.0137 25.2613C15.144 25.6519 15.2745 26.0426 15.4161 26.4291C15.4363 26.4842 15.5177 26.55 15.5742 26.5533C15.9009 26.5726 16.2286 26.5793 16.5561 26.5814C16.9535 26.5838 17.1021 26.4841 17.234 26.1064C17.3323 25.825 17.4096 25.5361 17.493 25.2496C17.5905 24.9147 17.6844 24.5787 17.7799 24.2432C17.8263 24.4194 17.8449 24.5923 17.863 24.7653C17.9251 25.3597 17.987 25.954 18.0574 26.5627C18.0801 26.5679 18.1027 26.5776 18.1253 26.5777C18.7228 26.5793 19.3202 26.5803 19.9177 26.5795C19.9536 26.5795 19.9895 26.5639 20.0313 26.529C20.0522 24.6942 20.0731 22.8593 20.0942 21.0067C20.0259 21.0067 19.9749 21.0069 19.9239 21.0067C19.1838 21.0035 18.4437 20.9985 17.7036 20.9983C17.5365 20.9983 17.324 20.9555 17.2144 21.0395C17.0945 21.1313 17.0555 21.343 17.0058 21.5098C16.8301 22.0995 16.6701 22.6939 16.4929 23.2832C16.4342 23.4783 16.3415 23.6632 16.2644 23.8528C16.2509 23.8503 16.2375 23.8477 16.224 23.8452C16.1995 23.7855 16.1701 23.7274 16.1513 23.6661C15.9326 22.9509 15.7046 22.2382 15.5028 21.5182C15.4069 21.1762 15.1939 21.0025 14.8617 20.9709C14.5794 20.944 14.294 20.9495 13.9849 20.9376C13.7643 20.939 13.5435 20.9348 13.3231 20.9436C13.1324 20.9513 12.9422 20.974 12.7236 20.9941ZM21.3404 20.6608C21.3342 20.6285 21.3305 20.5955 21.3213 20.5641C20.825 18.8781 20.3248 17.1932 19.8354 15.5053C19.7617 15.2511 19.6022 15.1373 19.3621 15.1063C19.2545 15.0924 19.1442 15.0956 19.0352 15.0975C18.5939 15.1053 18.1528 15.117 17.7115 15.1243C17.4937 15.1279 17.2758 15.1249 17.0509 15.1249C16.5125 16.9082 15.9769 18.6821 15.4309 20.4902C14.9181 19.863 14.5314 19.1985 14.1729 18.555C14.3347 18.3223 14.5017 18.1249 14.6218 17.9022C15.1953 16.8386 14.7685 15.7054 13.6415 15.277C13.2205 15.117 12.7789 15.0588 12.3323 15.0308C11.5627 14.9825 10.7991 15.0552 10.0298 15.1355C10.0274 15.1826 10.0235 15.2197 10.0238 15.2567C10.0359 17.0319 10.0482 18.8071 10.0609 20.5823C10.0612 20.6154 10.0657 20.6484 10.0833 20.697C10.1062 20.7019 10.1291 20.711 10.152 20.711C10.7495 20.7114 11.347 20.7109 11.9445 20.7102C11.9631 20.7102 11.9817 20.7063 12.0003 20.7042C11.9966 20.697 11.9938 20.6891 11.9889 20.6829C11.9865 20.6799 11.9802 20.6799 11.9988 20.6701C12.0201 20.6306 12.0578 20.5919 12.0599 20.5513C12.0719 20.3194 12.0788 20.087 12.0812 19.8547C12.0844 19.544 12.082 19.2333 12.082 18.8931C12.1372 18.9266 12.1511 18.9309 12.1589 18.9403C12.2009 18.9916 12.2441 19.0421 12.2819 19.0964C12.5979 19.5507 12.8266 20.0489 13.0088 20.5688C13.0394 20.6562 13.0737 20.6854 13.1658 20.6841C14.6453 20.6635 16.1248 20.6454 17.6043 20.6312C17.6975 20.6303 17.7244 20.5896 17.7457 20.5144C17.8036 20.3098 17.866 20.1065 17.9318 19.8854C18.2422 19.8854 18.55 19.8831 18.8576 19.8892C18.8875 19.8898 18.9328 19.9379 18.943 19.9722C18.986 20.1173 19.0191 20.2653 19.0545 20.4126C19.1112 20.6485 19.1108 20.6486 19.3121 20.6815C19.2655 20.6844 19.2189 20.6873 19.1723 20.6902C19.1884 20.7055 19.205 20.7089 19.2216 20.7089C19.8854 20.7098 20.5493 20.711 21.2132 20.7099C21.2534 20.7099 21.2936 20.6923 21.3404 20.6608ZM21.0287 25.2881C20.9098 25.7053 20.791 26.1226 20.6694 26.5494C21.4531 26.5494 22.2155 26.5494 22.9839 26.5494C22.9957 26.4496 23.0054 26.356 23.0182 26.2629C23.073 25.8636 23.2016 25.7516 23.6005 25.7539C23.6432 25.7542 23.6859 25.7544 23.7287 25.7546C24.0782 25.7565 24.1384 25.801 24.2443 26.138C24.2557 26.1741 24.2655 26.2108 24.2743 26.2477C24.3335 26.4964 24.3579 26.5187 24.613 26.5458C24.6648 26.5513 24.7173 26.553 24.7694 26.553C25.3059 26.5535 25.8424 26.5532 26.3788 26.5532C26.4527 26.5532 26.5265 26.5532 26.6152 26.5532C26.0507 24.6898 25.492 22.8454 24.9319 20.9965C24.0774 20.9965 23.2327 20.9956 22.388 20.9997C22.3556 20.9999 22.3061 21.0414 22.2939 21.0744C22.1829 21.3768 22.0646 21.6776 21.9744 21.9865C21.6557 23.078 21.3472 24.1725 21.0287 25.2881Z" fill="#F4A623"/>
<path d="M33.2204 20.0663C32.6016 20.4992 31.9004 20.6705 31.1751 20.7005C30.3897 20.7331 29.6014 20.6954 28.8143 20.6926C28.7056 20.6923 28.6636 20.6536 28.6588 20.5461C28.6348 20.0011 28.5831 19.4564 28.584 18.9116C28.586 17.7587 28.6139 16.6059 28.6334 15.4531C28.6351 15.3495 28.6529 15.2463 28.6652 15.1223C29.5777 15.0662 30.4845 15.0236 31.4039 15.1227C31.8786 15.1793 32.3322 15.2726 32.7603 15.4668C33.4706 15.789 33.914 16.3282 34.0754 17.0926C34.205 17.7067 34.1937 18.3188 34.0155 18.9225C33.8784 19.3867 33.6175 19.7693 33.2204 20.0663ZM31.0333 16.809C30.9309 16.809 30.8284 16.809 30.7171 16.809C30.7016 17.531 30.6864 18.235 30.6703 18.9789C30.8302 18.9789 30.9757 18.9856 31.1205 18.9776C31.4927 18.957 31.7591 18.7689 31.8488 18.4104C31.9063 18.1807 31.9254 17.9322 31.9104 17.6953C31.8733 17.1083 31.6407 16.8809 31.0333 16.809Z" fill="#010001"/>
<path d="M8.39744 15.4666C8.76142 15.7091 8.99651 16.0236 9.04842 16.4607C9.10292 16.9196 8.89961 17.3147 8.49249 17.5309C8.35217 17.6055 8.21587 17.6876 8.1006 17.7532C8.34833 17.9069 8.6098 18.0323 8.827 18.2114C9.28248 18.587 9.44284 19.1584 9.25402 19.6237C9.10864 19.9819 8.83114 20.2194 8.48825 20.3667C8.212 20.4855 7.91636 20.559 7.61854 20.6557C6.4965 20.8575 5.38327 20.6977 4.24463 20.6908C4.24463 18.8436 4.24463 17.01 4.24463 15.1519C4.40287 15.1386 4.57962 15.1171 4.75695 15.1101C5.37782 15.0854 5.99895 15.0474 6.61986 15.0497C7.14755 15.0516 7.67034 15.1271 8.16048 15.3461C8.23823 15.3808 8.31217 15.4241 8.39744 15.4666ZM6.40759 19.3174C6.51105 19.306 6.61447 19.2942 6.718 19.2835C7.01078 19.2533 7.0108 19.2535 7.03016 18.9537C7.04405 18.7388 6.96868 18.6077 6.76361 18.5594C6.62546 18.5269 6.47703 18.538 6.32453 18.5291C6.30573 18.8078 6.28869 19.0606 6.27124 19.3192C6.31992 19.3192 6.35202 19.3192 6.40759 19.3174ZM6.28109 16.7323C6.28109 16.8774 6.28109 17.0226 6.28109 17.1777C6.50814 17.1797 6.69804 17.15 6.87038 17.0521C7.06051 16.9442 7.06803 16.7722 6.8897 16.6455C6.71373 16.5203 6.50948 16.4886 6.28061 16.4726C6.28061 16.558 6.28061 16.6321 6.28109 16.7323Z" fill="#010001"/>
<path d="M32.2796 26.5345C31.6566 26.5438 31.0452 26.5488 30.4341 26.5619C30.3322 26.5641 30.2855 26.5302 30.2434 26.4408C29.9612 25.8417 29.6721 25.2458 29.3876 24.6478C29.3544 24.578 29.3357 24.5014 29.3083 24.422C29.2819 24.422 29.2402 24.422 29.179 24.422C29.179 25.0896 29.179 25.7518 29.1612 26.4253C28.5187 26.4374 27.8939 26.4382 27.2691 26.4389C27.2647 26.3968 27.2566 26.3547 27.2565 26.3125C27.2521 24.6139 27.2482 22.9153 27.2451 21.2167C27.245 21.1799 27.2541 21.143 27.2782 21.0995C27.9186 21.091 28.5398 21.0891 29.1611 21.0873C29.1676 21.1431 29.1795 21.199 29.1797 21.2549C29.182 21.8293 29.1822 22.4038 29.1835 22.9783C29.1836 23.0242 29.1873 23.0701 29.1901 23.1324C29.3199 23.0576 29.3924 22.9773 29.4413 22.8374C29.5832 22.4313 29.7596 22.0373 29.9181 21.6368C29.9895 21.4565 30.0466 21.2705 30.1195 21.0909C30.1356 21.0514 30.1909 21.0012 30.2284 21.001C30.9643 20.9959 31.7002 20.9974 32.4361 20.998C32.4496 20.998 32.4631 21.0031 32.4966 21.0098C32.4515 21.1179 32.4167 21.2255 32.3642 21.3236C32.0464 21.9167 31.7225 22.5065 31.4057 23.1001C31.3233 23.2544 31.2592 23.4184 31.1866 23.5779C31.1145 23.7362 31.1238 23.8853 31.2146 24.0379C31.583 24.6571 31.9461 25.2794 32.312 25.9001C32.3648 25.9897 32.4224 26.0765 32.4831 26.1708C32.5435 26.2836 32.5985 26.3901 32.6723 26.533C32.5274 26.533 32.4093 26.533 32.2796 26.5345Z" fill="#020101"/>
<path d="M33.174 24.0888C33.1717 24.0618 33.173 24.0452 33.1768 24.0154C33.1794 24.0021 33.1754 24.0048 33.1754 24.0048C33.1785 23.6443 33.1833 23.2837 33.1843 22.9231C33.1858 22.3441 33.1835 21.7651 33.1871 21.1861C33.1874 21.142 33.2224 21.0981 33.2529 21.0533C34.6261 21.0525 35.9875 21.0525 37.361 21.0525C37.3647 21.1049 37.3707 21.146 37.3699 21.1869C37.3617 21.6092 37.3484 22.0314 37.3458 22.4536C37.345 22.5733 37.3046 22.6048 37.1885 22.6029C36.5812 22.593 35.9736 22.5949 35.3663 22.5833C35.2334 22.5808 35.1948 22.6209 35.1993 22.7505C35.2091 23.028 35.1835 22.9856 35.4364 22.9876C35.9916 22.9922 36.5469 22.996 37.1021 22.9935C37.2129 22.993 37.2502 23.0254 37.249 23.1378C37.2439 23.5928 37.2469 24.0479 37.2469 24.5211C37.2026 24.5239 37.153 24.5286 37.1032 24.5299C36.5245 24.5454 35.9459 24.5638 35.3671 24.5728C35.2394 24.5747 35.1813 24.6109 35.2011 24.7427C35.206 24.7752 35.2054 24.8094 35.2013 24.8421C35.1872 24.9523 35.2404 24.978 35.3419 24.9772C35.8734 24.9734 36.4049 24.9755 36.9364 24.9755C37.112 24.9756 37.2879 24.9706 37.463 24.9798C37.5016 24.9818 37.57 25.034 37.57 25.0631C37.5694 25.5232 37.5599 25.9834 37.5518 26.4435C37.5517 26.4519 37.5438 26.4601 37.5327 26.4817C37.4892 26.4837 37.4383 26.4882 37.3874 26.4882C36.0444 26.4886 34.7014 26.4866 33.3584 26.4914C33.2244 26.4919 33.1808 26.46 33.1816 26.32C33.1861 25.5798 33.18 24.8396 33.174 24.0888Z" fill="#000001"/>
<path d="M10.0679 20.6813C10.0654 20.6483 10.0608 20.6152 10.0606 20.5822C10.0479 18.807 10.0355 17.0317 10.0234 15.2565C10.0232 15.2195 10.027 15.1825 10.0295 15.1353C10.7988 15.055 11.5623 14.9824 12.332 15.0306C12.7786 15.0587 13.2202 15.1168 13.6411 15.2769C14.7681 15.7052 15.1949 16.8385 14.6215 17.9021C14.5014 18.1248 14.3344 18.3222 14.1726 18.5548C14.5311 19.1983 14.9178 19.8628 15.4306 20.4901C15.9765 18.6819 16.5121 16.9081 17.0505 15.1248C17.2755 15.1248 17.4934 15.1278 17.7112 15.1242C18.1524 15.1169 18.5936 15.1051 19.0348 15.0974C19.1438 15.0954 19.2541 15.0922 19.3617 15.1061C19.6019 15.1372 19.7613 15.2509 19.835 15.5051C20.3245 17.1931 20.8247 18.8779 21.3209 20.5639C21.3302 20.5953 21.3338 20.6284 21.324 20.6701C20.651 20.6793 19.9941 20.6791 19.3371 20.6788C19.1104 20.6484 19.1109 20.6483 19.0542 20.4125C19.0187 20.2652 18.9857 20.1171 18.9427 19.972C18.9325 19.9377 18.8872 19.8896 18.8572 19.889C18.5496 19.8829 18.2419 19.8853 17.9314 19.8853C17.8657 20.1063 17.8032 20.3097 17.7453 20.5143C17.7241 20.5894 17.6971 20.6302 17.604 20.6311C16.1244 20.6452 14.6449 20.6633 13.1655 20.684C13.0734 20.6852 13.0391 20.6561 13.0084 20.5687C12.8262 20.0488 12.5975 19.5505 12.2815 19.0962C12.2438 19.042 12.2005 18.9914 12.1585 18.9402C12.1508 18.9308 12.1369 18.9264 12.0816 18.8929C12.0816 19.2332 12.084 19.5439 12.0808 19.8545C12.0784 20.0868 12.0716 20.3192 12.0596 20.5512C12.0574 20.5917 12.0197 20.6304 11.9757 20.6707C11.3246 20.6747 10.6963 20.678 10.0679 20.6813ZM12.4981 17.3309C12.54 17.309 12.5841 17.2906 12.6233 17.2647C12.8756 17.0978 12.8798 16.8479 12.6161 16.7052C12.4591 16.6203 12.277 16.5816 12.093 16.5175C12.093 16.8411 12.093 17.1224 12.093 17.4315C12.2335 17.3985 12.356 17.3698 12.4981 17.3309ZM18.2009 18.2398C18.1742 18.3633 18.1474 18.4868 18.1188 18.6189C18.305 18.6189 18.478 18.6189 18.6581 18.6189C18.6536 18.2346 18.5293 17.894 18.352 17.5359C18.2983 17.7831 18.2513 17.9995 18.2009 18.2398Z" fill="#010100"/>
<path d="M18.0488 26.5483C17.9868 25.954 17.9249 25.3596 17.8628 24.7653C17.8447 24.5923 17.8261 24.4193 17.7797 24.2431C17.6842 24.5787 17.5903 24.9147 17.4928 25.2496C17.4094 25.5361 17.3321 25.8249 17.2338 26.1063C17.1019 26.484 16.9533 26.5838 16.5559 26.5813C16.2284 26.5793 15.9007 26.5726 15.574 26.5533C15.5175 26.5499 15.4361 26.4842 15.4159 26.4291C15.2743 26.0425 15.1438 25.6519 15.0135 25.2613C14.8414 24.7455 14.6728 24.2285 14.5026 23.712C14.4905 23.7129 14.4783 23.7138 14.4662 23.7146C14.4662 24.6573 14.4662 25.6 14.4662 26.5502C13.7622 26.5502 13.0859 26.5502 12.4014 26.5502C12.4014 24.702 12.4014 22.8579 12.4014 20.994C12.5085 20.994 12.6159 20.994 12.7487 20.9943C13.1859 20.9767 13.5978 20.9587 14.0098 20.9407C14.2938 20.9495 14.5792 20.944 14.8615 20.9708C15.1937 21.0024 15.4067 21.1761 15.5026 21.5182C15.7044 22.2382 15.9324 22.9508 16.1511 23.666C16.1699 23.7274 16.1993 23.7855 16.2238 23.8451C16.2373 23.8477 16.2507 23.8502 16.2642 23.8528C16.3413 23.6632 16.434 23.4783 16.4927 23.2832C16.6699 22.6939 16.83 22.0995 17.0056 21.5097C17.0553 21.343 17.0943 21.1312 17.2142 21.0394C17.3239 20.9555 17.5363 20.9982 17.7034 20.9983C18.4435 20.9985 19.1836 21.0034 19.9237 21.0066C19.9747 21.0068 20.0257 21.0066 20.094 21.0066C20.0729 22.8593 20.052 24.6941 20.0151 26.5418C19.349 26.5524 18.6989 26.5504 18.0488 26.5483Z" fill="#010101"/>
<path d="M21.9457 20.6846C21.9426 20.6423 21.9368 20.5999 21.9368 20.5575C21.9364 18.7919 21.9365 17.0263 21.9367 15.2608C21.9368 15.2193 21.9402 15.1778 21.9423 15.1288C21.9873 15.1265 22.0241 15.1231 22.0608 15.123C22.6494 15.1227 23.2379 15.1257 23.8264 15.1211C24.0304 15.1195 24.208 15.1823 24.3296 15.3393C24.4677 15.5177 24.5952 15.7085 24.6986 15.9087C24.8637 16.2282 24.9996 16.5627 25.1586 16.8856C25.2544 17.0801 25.3752 17.2606 25.5821 17.3993C25.5821 16.6325 25.5821 15.8863 25.5821 15.1336C26.2726 15.1336 26.9485 15.1336 27.6353 15.1336C27.6353 16.9768 27.6353 18.8101 27.6353 20.6598C27.582 20.6598 27.5311 20.6592 27.4803 20.6599C26.925 20.6675 26.3697 20.6714 25.8146 20.6846C25.5173 20.6917 25.2807 20.5809 25.1313 20.3293C24.9916 20.094 24.8732 19.845 24.759 19.5958C24.5629 19.1684 24.3629 18.7448 24.0151 18.3641C24.0074 19.1489 23.9999 19.9036 23.9757 20.6705C23.2878 20.6834 22.6168 20.684 21.9457 20.6846Z" fill="#010001"/>
<path d="M21.0318 25.277C21.3472 24.1725 21.6557 23.078 21.9744 21.9865C22.0646 21.6776 22.1829 21.3768 22.2939 21.0744C22.3061 21.0413 22.3556 20.9998 22.388 20.9997C23.2327 20.9956 24.0774 20.9964 24.9319 20.9964C25.492 22.8453 26.0507 24.6898 26.6152 26.5532C26.5265 26.5532 26.4527 26.5532 26.3788 26.5532C25.8424 26.5532 25.3059 26.5534 24.7694 26.553C24.7173 26.5529 24.6648 26.5512 24.613 26.5457C24.3579 26.5187 24.3335 26.4964 24.2743 26.2476C24.2655 26.2108 24.2557 26.1741 24.2443 26.138C24.1384 25.801 24.0782 25.7564 23.7287 25.7546C23.6859 25.7544 23.6432 25.7541 23.6005 25.7539C23.2016 25.7516 23.073 25.8635 23.0182 26.2628C23.0054 26.356 22.9957 26.4496 22.9839 26.5494C22.2154 26.5494 21.4531 26.5494 20.6694 26.5494C20.791 26.1225 20.9098 25.7053 21.0318 25.277ZM23.7907 23.8834C23.7536 23.6945 23.7166 23.5057 23.6796 23.3168C23.6713 23.3175 23.6631 23.3182 23.6548 23.3188C23.5596 23.6916 23.4643 24.0644 23.3647 24.4543C23.5538 24.4686 23.725 24.4816 23.9102 24.4956C23.8691 24.2873 23.8316 24.0974 23.7907 23.8834Z" fill="#010000"/>
<path d="M19.3244 20.6803C19.994 20.6793 20.651 20.6795 21.3207 20.6814C21.2932 20.6923 21.253 20.7099 21.2128 20.71C20.5489 20.711 19.8851 20.7099 19.2212 20.7089C19.2046 20.7089 19.188 20.7055 19.1719 20.6903C19.2185 20.6874 19.2651 20.6845 19.3244 20.6803Z" fill="#D8AA5E"/>
<path d="M21.9541 20.6916C22.6167 20.6839 23.2878 20.6833 23.9718 20.6834C23.9491 20.6929 23.9135 20.7094 23.8778 20.7095C23.2577 20.7109 22.6377 20.7105 22.0176 20.7097C21.9992 20.7097 21.9809 20.7024 21.9541 20.6916Z" fill="#D1AB6B"/>
<path d="M18.0532 26.5554C18.6991 26.5503 19.3493 26.5524 20.0125 26.5549C19.9896 26.5638 19.9537 26.5793 19.9178 26.5794C19.3203 26.5801 18.7228 26.5791 18.1253 26.5776C18.1027 26.5775 18.0801 26.5678 18.0532 26.5554Z" fill="#C8A363"/>
<path d="M10.0757 20.6892C10.6965 20.6782 11.3248 20.6749 11.9644 20.6751C11.9801 20.6799 11.9865 20.6799 11.9889 20.6829C11.9937 20.6892 11.9965 20.697 12.0002 20.7042C11.9816 20.7063 11.963 20.7102 11.9445 20.7102C11.3469 20.7109 10.7494 20.7114 10.1519 20.7111C10.129 20.7111 10.1061 20.7019 10.0757 20.6892Z" fill="#DBAA57"/>
<path d="M29.1543 21.0793C28.5402 21.089 27.919 21.0909 27.2856 21.09C27.3081 21.0764 27.3427 21.0561 27.3773 21.056C27.9446 21.0541 28.5119 21.0546 29.0792 21.0556C29.1018 21.0556 29.1244 21.066 29.1543 21.0793Z" fill="#E0A84B"/>
<path d="M27.2783 26.4459C27.8942 26.4381 28.519 26.4374 29.1566 26.4379C29.1338 26.4484 29.0981 26.4657 29.0624 26.4658C28.4938 26.4674 27.9251 26.4669 27.3564 26.4661C27.3333 26.4661 27.3103 26.4576 27.2783 26.4459Z" fill="#DAAA58"/>
<path d="M13.9972 20.9391C13.5977 20.9587 13.1858 20.9767 12.7627 20.9923C12.9419 20.9739 13.1321 20.9513 13.3228 20.9436C13.5432 20.9347 13.764 20.939 13.9972 20.9391Z" fill="#C69C55"/>
<path d="M33.1744 24.006C33.1753 24.0049 33.1792 24.0021 33.1786 24.0032C33.178 24.0042 33.1736 24.0071 33.1744 24.006Z" fill="#52658D"/>
<path d="M12.8777 28.2622C12.8753 28.2604 12.8722 28.2593 12.8691 28.2581C12.8723 28.2575 12.8756 28.2568 12.8771 28.26C12.8755 28.2639 12.877 28.2628 12.8777 28.2622Z" fill="#52658D"/>
<path d="M31.0466 16.8097C31.6407 16.881 31.8734 17.1084 31.9105 17.6954C31.9255 17.9323 31.9064 18.1808 31.8489 18.4105C31.7592 18.769 31.4928 18.9571 31.1205 18.9777C30.9758 18.9857 30.8303 18.979 30.6704 18.979C30.6865 18.2351 30.7016 17.5311 30.7172 16.8091C30.8285 16.8091 30.9309 16.8091 31.0466 16.8097Z" fill="#F3A524"/>
<path d="M6.39609 19.3182C6.35226 19.3191 6.32016 19.3191 6.27148 19.3191C6.28893 19.0605 6.30597 18.8078 6.32477 18.5291C6.47727 18.538 6.6257 18.5268 6.76385 18.5593C6.96893 18.6076 7.0443 18.7387 7.03041 18.9537C7.01104 19.2534 7.01102 19.2532 6.71824 19.2834C6.61471 19.2941 6.5113 19.306 6.39609 19.3182Z" fill="#51648A"/>
<path d="M6.281 16.7192C6.28076 16.6321 6.28076 16.558 6.28076 16.4727C6.50963 16.4886 6.71388 16.5203 6.88985 16.6455C7.06818 16.7722 7.06066 16.9442 6.87053 17.0522C6.69819 17.15 6.5083 17.1797 6.28125 17.1777C6.28125 17.0226 6.28125 16.8775 6.281 16.7192Z" fill="#51638A"/>
<path d="M12.4886 17.336C12.3563 17.3698 12.2338 17.3986 12.0933 17.4315C12.0933 17.1225 12.0933 16.8412 12.0933 16.5176C12.2773 16.5816 12.4594 16.6203 12.6164 16.7053C12.8801 16.848 12.8759 17.0978 12.6236 17.2647C12.5844 17.2906 12.5403 17.309 12.4886 17.336Z" fill="#EEA325"/>
<path d="M18.2029 18.2281C18.2516 17.9997 18.2986 17.7833 18.3524 17.5361C18.5296 17.8942 18.654 18.2348 18.6585 18.619C18.4783 18.619 18.3054 18.619 18.1191 18.619C18.1478 18.487 18.1745 18.3635 18.2029 18.2281Z" fill="#EAA025"/>
<path d="M23.7919 23.8955C23.8312 24.0975 23.8686 24.2874 23.9098 24.4956C23.7246 24.4816 23.5534 24.4687 23.3643 24.4544C23.4639 24.0645 23.5591 23.6917 23.6544 23.3189C23.6627 23.3182 23.6709 23.3176 23.6792 23.3169C23.7162 23.5057 23.7532 23.6946 23.7919 23.8955Z" fill="#EBA125"/>
</g>
<defs>
<clipPath id="clip0_764_2256">
<rect width="43.5043" height="40" fill="white"/>

</clipPath>
</defs>

</svg>
