<svg width="102" height="12" viewBox="0 0 102 12" fill="none" xmlns="http://www.w3.org/2000/svg">
<path d="M0.649137 11.5999C0.54247 11.5999 0.451803 11.5626 0.377137 11.4879C0.30247 11.4132 0.265137 11.3226 0.265137 11.2159V0.799903C0.265137 0.682569 0.30247 0.586569 0.377137 0.511903C0.451803 0.437236 0.54247 0.399902 0.649137 0.399902H5.28914C6.15314 0.399902 6.85714 0.533236 7.40114 0.799903C7.94514 1.0559 8.34514 1.41324 8.60114 1.8719C8.8678 2.33057 9.00114 2.8639 9.00114 3.4719C9.00114 3.87724 8.92647 4.23457 8.77714 4.5439C8.63847 4.84257 8.46247 5.0879 8.24914 5.2799C8.04647 5.4719 7.8438 5.62124 7.64114 5.7279C8.05714 5.9199 8.42514 6.2399 8.74514 6.6879C9.06514 7.1359 9.22514 7.66924 9.22514 8.2879C9.22514 8.9279 9.08114 9.49857 8.79314 9.9999C8.50514 10.5012 8.07847 10.8959 7.51314 11.1839C6.9478 11.4612 6.24914 11.5999 5.41714 11.5999H0.649137ZM2.48914 9.9039H5.16114C5.73714 9.9039 6.17447 9.74924 6.47314 9.4399C6.7718 9.1199 6.92114 8.7359 6.92114 8.2879C6.92114 7.81857 6.76647 7.42924 6.45714 7.1199C6.15847 6.81057 5.72647 6.6559 5.16114 6.6559H2.48914V9.9039ZM2.48914 4.9919H5.00114C5.56647 4.9919 5.9878 4.85857 6.26514 4.5919C6.55314 4.31457 6.69714 3.95724 6.69714 3.5199C6.69714 3.0719 6.55314 2.72524 6.26514 2.4799C5.9878 2.2239 5.56647 2.0959 5.00114 2.0959H2.48914V4.9919Z" fill="#F5F5DC"/>
<path d="M11.6179 11.5999C11.5112 11.5999 11.4206 11.5626 11.3459 11.4879C11.2712 11.4132 11.2339 11.3226 11.2339 11.2159V0.799903C11.2339 0.682569 11.2712 0.586569 11.3459 0.511903C11.4206 0.437236 11.5112 0.399902 11.6179 0.399902H15.7619C17.0526 0.399902 18.0712 0.698569 18.8179 1.2959C19.5646 1.89324 19.9379 2.76257 19.9379 3.9039C19.9379 4.69324 19.7406 5.34924 19.3459 5.8719C18.9619 6.39457 18.4446 6.77324 17.7939 7.0079L20.1299 11.0879C20.1619 11.1519 20.1779 11.2106 20.1779 11.2639C20.1779 11.3599 20.1406 11.4399 20.0659 11.5039C20.0019 11.5679 19.9272 11.5999 19.8419 11.5999H18.3859C18.2046 11.5999 18.0659 11.5519 17.9699 11.4559C17.8739 11.3599 17.7992 11.2639 17.7459 11.1679L15.6819 7.3759H13.4579V11.2159C13.4579 11.3226 13.4206 11.4132 13.3459 11.4879C13.2819 11.5626 13.1912 11.5999 13.0739 11.5999H11.6179ZM13.4579 5.5679H15.7139C16.3646 5.5679 16.8499 5.4239 17.1699 5.1359C17.4899 4.83724 17.6499 4.42124 17.6499 3.8879C17.6499 3.35457 17.4899 2.93857 17.1699 2.6399C16.8606 2.33057 16.3752 2.1759 15.7139 2.1759H13.4579V5.5679Z" fill="#F5F5DC"/>
<path d="M21.3115 11.5999C21.2262 11.5999 21.1462 11.5679 21.0715 11.5039C21.0075 11.4399 20.9755 11.3599 20.9755 11.2639C20.9755 11.2212 20.9862 11.1732 21.0075 11.1199L24.8635 0.799903C24.8955 0.693236 24.9542 0.602569 25.0395 0.527903C25.1355 0.442569 25.2635 0.399902 25.4235 0.399902H27.1675C27.3275 0.399902 27.4502 0.442569 27.5355 0.527903C27.6208 0.602569 27.6848 0.693236 27.7275 0.799903L31.5835 11.1199C31.5942 11.1732 31.5995 11.2212 31.5995 11.2639C31.5995 11.3599 31.5675 11.4399 31.5035 11.5039C31.4395 11.5679 31.3648 11.5999 31.2795 11.5999H29.8875C29.7382 11.5999 29.6262 11.5679 29.5515 11.5039C29.4875 11.4292 29.4448 11.3599 29.4235 11.2959L28.6715 9.3439H23.9195L23.1675 11.2959C23.1462 11.3599 23.0982 11.4292 23.0235 11.5039C22.9595 11.5679 22.8528 11.5999 22.7035 11.5999H21.3115ZM24.4795 7.5039H28.1115L26.2875 2.5599L24.4795 7.5039Z" fill="#F5F5DC"/>
<path d="M33.4773 11.5999C33.3706 11.5999 33.2799 11.5626 33.2053 11.4879C33.1306 11.4132 33.0933 11.3226 33.0933 11.2159V0.799903C33.0933 0.682569 33.1306 0.586569 33.2053 0.511903C33.2799 0.437236 33.3706 0.399902 33.4773 0.399902H34.7093C34.8586 0.399902 34.9653 0.437236 35.0293 0.511903C35.1039 0.575903 35.1519 0.623903 35.1733 0.655903L39.7813 7.8239V0.799903C39.7813 0.682569 39.8133 0.586569 39.8773 0.511903C39.9519 0.437236 40.0479 0.399902 40.1653 0.399902H41.5093C41.6266 0.399902 41.7226 0.437236 41.7973 0.511903C41.8719 0.586569 41.9093 0.682569 41.9093 0.799903V11.1999C41.9093 11.3172 41.8719 11.4132 41.7973 11.4879C41.7226 11.5626 41.6319 11.5999 41.5253 11.5999H40.2773C40.1279 11.5999 40.0213 11.5626 39.9573 11.4879C39.8933 11.4132 39.8453 11.3652 39.8133 11.3439L35.2213 4.3359V11.2159C35.2213 11.3226 35.1839 11.4132 35.1093 11.4879C35.0346 11.5626 34.9386 11.5999 34.8213 11.5999H33.4773Z" fill="#F5F5DC"/>
<path d="M44.7898 11.5999C44.6831 11.5999 44.5924 11.5626 44.5178 11.4879C44.4431 11.4132 44.4058 11.3226 44.4058 11.2159V0.799903C44.4058 0.682569 44.4431 0.586569 44.5178 0.511903C44.5924 0.437236 44.6831 0.399902 44.7898 0.399902H48.6938C49.7711 0.399902 50.6564 0.565236 51.3498 0.895903C52.0538 1.22657 52.5818 1.71724 52.9338 2.3679C53.2964 3.01857 53.4831 3.81324 53.4938 4.7519C53.5151 5.22124 53.5258 5.63724 53.5258 5.9999C53.5258 6.36257 53.5151 6.77324 53.4938 7.2319C53.4724 8.2239 53.2911 9.04524 52.9498 9.6959C52.6084 10.3359 52.0911 10.8159 51.3978 11.1359C50.7151 11.4452 49.8404 11.5999 48.7738 11.5999H44.7898ZM46.6298 9.7599H48.6938C49.2911 9.7599 49.7764 9.67457 50.1498 9.5039C50.5231 9.33324 50.7951 9.06124 50.9658 8.6879C51.1471 8.3039 51.2431 7.80257 51.2538 7.1839C51.2644 6.8639 51.2698 6.58657 51.2698 6.3519C51.2804 6.10657 51.2804 5.86657 51.2698 5.6319C51.2698 5.38657 51.2644 5.10924 51.2538 4.7999C51.2324 3.92524 51.0138 3.2799 50.5978 2.8639C50.1818 2.4479 49.5204 2.2399 48.6138 2.2399H46.6298V9.7599Z" fill="#F5F5DC"/>
<path d="M59.712 11.5999C59.5947 11.5999 59.4987 11.5626 59.424 11.4879C59.3493 11.4132 59.312 11.3226 59.312 11.2159V0.799903C59.312 0.682569 59.3493 0.586569 59.424 0.511903C59.4987 0.437236 59.5947 0.399902 59.712 0.399902H60.976C61.1253 0.399902 61.2373 0.442569 61.312 0.527903C61.3867 0.602569 61.4347 0.661235 61.456 0.703902L64.544 6.4639L67.664 0.703902C67.6853 0.661235 67.7333 0.602569 67.808 0.527903C67.8827 0.442569 67.9947 0.399902 68.144 0.399902H69.392C69.5093 0.399902 69.6053 0.437236 69.68 0.511903C69.7547 0.586569 69.792 0.682569 69.792 0.799903V11.2159C69.792 11.3226 69.7547 11.4132 69.68 11.4879C69.6053 11.5626 69.5093 11.5999 69.392 11.5999H68.048C67.9307 11.5999 67.8347 11.5626 67.76 11.4879C67.696 11.4132 67.664 11.3226 67.664 11.2159V4.2879L65.424 8.5599C65.3707 8.6559 65.3013 8.74124 65.216 8.8159C65.1307 8.8799 65.0187 8.9119 64.88 8.9119H64.224C64.0747 8.9119 63.9573 8.8799 63.872 8.8159C63.7973 8.74124 63.7333 8.6559 63.68 8.5599L61.44 4.2879V11.2159C61.44 11.3226 61.4027 11.4132 61.328 11.4879C61.2533 11.5626 61.1627 11.5999 61.056 11.5999H59.712Z" fill="#F5F5DC"/>
<path d="M71.5928 11.5999C71.5074 11.5999 71.4274 11.5679 71.3528 11.5039C71.2888 11.4399 71.2568 11.3599 71.2568 11.2639C71.2568 11.2212 71.2674 11.1732 71.2888 11.1199L75.1448 0.799903C75.1768 0.693236 75.2354 0.602569 75.3208 0.527903C75.4168 0.442569 75.5448 0.399902 75.7048 0.399902H77.4488C77.6088 0.399902 77.7314 0.442569 77.8168 0.527903C77.9021 0.602569 77.9661 0.693236 78.0088 0.799903L81.8648 11.1199C81.8754 11.1732 81.8808 11.2212 81.8808 11.2639C81.8808 11.3599 81.8488 11.4399 81.7848 11.5039C81.7208 11.5679 81.6461 11.5999 81.5608 11.5999H80.1688C80.0194 11.5999 79.9074 11.5679 79.8328 11.5039C79.7688 11.4292 79.7261 11.3599 79.7048 11.2959L78.9528 9.3439H74.2008L73.4488 11.2959C73.4274 11.3599 73.3794 11.4292 73.3048 11.5039C73.2408 11.5679 73.1341 11.5999 72.9848 11.5999H71.5928ZM74.7608 7.5039H78.3928L76.5688 2.5599L74.7608 7.5039Z" fill="#F5F5DC"/>
<path d="M83.7585 11.5999C83.6518 11.5999 83.5612 11.5626 83.4865 11.4879C83.4118 11.4132 83.3745 11.3226 83.3745 11.2159V0.799903C83.3745 0.682569 83.4118 0.586569 83.4865 0.511903C83.5612 0.437236 83.6518 0.399902 83.7585 0.399902H85.1665C85.2838 0.399902 85.3798 0.437236 85.4545 0.511903C85.5292 0.586569 85.5665 0.682569 85.5665 0.799903V4.5439L89.1825 0.687902C89.2252 0.634569 89.2945 0.575903 89.3905 0.511903C89.4972 0.437236 89.6358 0.399902 89.8065 0.399902H91.3905C91.4758 0.399902 91.5505 0.431903 91.6145 0.495903C91.6892 0.559903 91.7265 0.639903 91.7265 0.735903C91.7265 0.810569 91.7052 0.874569 91.6625 0.927902L87.2625 5.7599L91.9665 11.0559C92.0198 11.1199 92.0465 11.1892 92.0465 11.2639C92.0465 11.3599 92.0092 11.4399 91.9345 11.5039C91.8705 11.5679 91.7958 11.5999 91.7105 11.5999H90.0625C89.8812 11.5999 89.7372 11.5626 89.6305 11.4879C89.5345 11.4026 89.4705 11.3439 89.4385 11.3119L85.5665 7.0719V11.2159C85.5665 11.3226 85.5292 11.4132 85.4545 11.4879C85.3798 11.5626 85.2838 11.5999 85.1665 11.5999H83.7585Z" fill="#F5F5DC"/>
<path d="M93.8679 11.5999C93.7612 11.5999 93.6706 11.5626 93.5959 11.4879C93.5212 11.4132 93.4839 11.3226 93.4839 11.2159V0.799903C93.4839 0.682569 93.5212 0.586569 93.5959 0.511903C93.6706 0.437236 93.7612 0.399902 93.8679 0.399902H100.908C101.025 0.399902 101.121 0.437236 101.196 0.511903C101.271 0.586569 101.308 0.682569 101.308 0.799903V1.8559C101.308 1.96257 101.271 2.05324 101.196 2.1279C101.121 2.20257 101.025 2.2399 100.908 2.2399H95.6439V5.0719H100.556C100.673 5.0719 100.769 5.10924 100.844 5.1839C100.919 5.2479 100.956 5.33857 100.956 5.4559V6.4479C100.956 6.56524 100.919 6.66124 100.844 6.7359C100.769 6.7999 100.673 6.8319 100.556 6.8319H95.6439V9.7599H101.036C101.153 9.7599 101.249 9.79724 101.324 9.8719C101.399 9.94657 101.436 10.0426 101.436 10.1599V11.2159C101.436 11.3226 101.399 11.4132 101.324 11.4879C101.249 11.5626 101.153 11.5999 101.036 11.5999H93.8679Z" fill="#F5F5DC"/>
</svg>
