<svg width="29" height="24" viewBox="0 0 29 24" fill="none" xmlns="http://www.w3.org/2000/svg">
<path d="M8.65226 0H5.52182C2.93254 0 0.826172 2.30697 0.826172 5.14286V8.57143C0.826172 11.4073 2.93254 13.7143 5.52182 13.7143H8.65226C9.1548 13.7143 9.63 13.6047 10.0843 13.4437C9.45323 17.4813 6.25654 20.5714 2.39139 20.5714C1.52624 20.5714 0.826172 21.3382 0.826172 22.2857C0.826172 23.2333 1.52624 24 2.39139 24C8.43219 24 13.3479 18.6161 13.3479 12V5.14286C13.3479 2.30697 11.2415 0 8.65226 0ZM24.3044 0H21.174C18.5847 0 16.4783 2.30697 16.4783 5.14286V8.57143C16.4783 11.4073 18.5847 13.7143 21.174 13.7143H24.3044C24.807 13.7143 25.2822 13.6047 25.7365 13.4437C25.1054 17.4813 21.9087 20.5714 18.0436 20.5714C17.1784 20.5714 16.4783 21.3382 16.4783 22.2857C16.4783 23.2333 17.1784 24 18.0436 24C24.0844 24 29.0001 18.6161 29.0001 12V5.14286C29.0001 2.30697 26.8937 0 24.3044 0Z" fill="#F5A623"/>
<path d="M10.5783 13.5209L10.7079 12.6922L9.91729 12.9724C9.49843 13.1208 9.08137 13.2143 8.65226 13.2143H5.52182C3.25052 13.2143 1.32617 11.175 1.32617 8.57143V5.14286C1.32617 2.53933 3.25052 0.5 5.52182 0.5H8.65226C10.9236 0.5 12.8479 2.53933 12.8479 5.14286V12C12.8479 18.3838 8.11421 23.5 2.39139 23.5C1.84422 23.5 1.32617 23.0009 1.32617 22.2857C1.32617 21.5705 1.84422 21.0714 2.39139 21.0714C6.5419 21.0714 9.91555 17.7612 10.5783 13.5209ZM26.2305 13.5209L26.36 12.6922L25.5695 12.9724C25.1506 13.1208 24.7335 13.2143 24.3044 13.2143H21.174C18.9027 13.2143 16.9783 11.175 16.9783 8.57143V5.14286C16.9783 2.53933 18.9027 0.5 21.174 0.5H24.3044C26.5757 0.5 28.5001 2.53933 28.5001 5.14286V12C28.5001 18.3838 23.7664 23.5 18.0436 23.5C17.4964 23.5 16.9783 23.0009 16.9783 22.2857C16.9783 21.5705 17.4964 21.0714 18.0436 21.0714C22.1941 21.0714 25.5677 17.7612 26.2305 13.5209Z" stroke="black" stroke-opacity="0.1"/>
</svg>
